<svg width="19" height="23" viewBox="0 0 19 23" fill="none" xmlns="http://www.w3.org/2000/svg">
<path d="M0 19.55V17.25H2.3V9.2C2.3 7.60917 2.77917 6.19582 3.7375 4.95995C4.69583 3.72409 5.94167 2.9141 7.475 2.53V1.725C7.475 1.24584 7.6429 0.838736 7.9787 0.503702C8.3145 0.168669 8.7216 0.00076928 9.2 2.61364e-06C9.6784 -0.000764053 10.0859 0.167136 10.4224 0.503702C10.759 0.840269 10.9265 1.24737 10.925 1.725V2.53C12.4583 2.91334 13.7042 3.72332 14.6625 4.95995C15.6208 6.19658 16.1 7.60993 16.1 9.2V17.25H18.4V19.55H0ZM9.2 23C8.5675 23 8.02623 22.775 7.5762 22.3249C7.12617 21.8749 6.90076 21.3333 6.9 20.7H11.5C11.5 21.3325 11.275 21.8741 10.8249 22.3249C10.3749 22.7757 9.83326 23.0008 9.2 23Z" fill="#1F1F1F"/>
</svg>
