<svg width="22" height="16" viewBox="0 0 22 16" fill="none" xmlns="http://www.w3.org/2000/svg">
<path d="M17 14.5C17.3978 14.5 17.7794 14.342 18.0607 14.0607C18.342 13.7794 18.5 13.3978 18.5 13C18.5 12.6022 18.342 12.2206 18.0607 11.9393C17.7794 11.658 17.3978 11.5 17 11.5C16.6022 11.5 16.2206 11.658 15.9393 11.9393C15.658 12.2206 15.5 12.6022 15.5 13C15.5 13.3978 15.658 13.7794 15.9393 14.0607C16.2206 14.342 16.6022 14.5 17 14.5ZM18.5 5.5H16V8H20.46L18.5 5.5ZM5 14.5C5.39782 14.5 5.77936 14.342 6.06066 14.0607C6.34196 13.7794 6.5 13.3978 6.5 13C6.5 12.6022 6.34196 12.2206 6.06066 11.9393C5.77936 11.658 5.39782 11.5 5 11.5C4.60218 11.5 4.22064 11.658 3.93934 11.9393C3.65804 12.2206 3.5 12.6022 3.5 13C3.5 13.3978 3.65804 13.7794 3.93934 14.0607C4.22064 14.342 4.60218 14.5 5 14.5ZM19 4L22 8V13H20C20 13.7956 19.6839 14.5587 19.1213 15.1213C18.5587 15.6839 17.7956 16 17 16C16.2044 16 15.4413 15.6839 14.8787 15.1213C14.3161 14.5587 14 13.7956 14 13H8C8 13.7956 7.68393 14.5587 7.12132 15.1213C6.55871 15.6839 5.79565 16 5 16C4.20435 16 3.44129 15.6839 2.87868 15.1213C2.31607 14.5587 2 13.7956 2 13H0V2C0 0.89 0.89 0 2 0H16V4H19ZM7 2V5H4V7H7V10H9V7H12V5H9V2H7Z" fill="#444746"/>
</svg>
