<svg width="19" height="24" viewBox="0 0 19 24" fill="none" xmlns="http://www.w3.org/2000/svg">
<path d="M0.600006 20.05V17.75H2.90001V9.7C2.90001 8.10917 3.37917 6.69582 4.33751 5.45995C5.29584 4.22409 6.54167 3.4141 8.075 3.03V2.225C8.075 1.74584 8.2429 1.33874 8.5787 1.0037C8.9145 0.668669 9.3216 0.500769 9.8 0.500003C10.2784 0.499236 10.6859 0.667136 11.0225 1.0037C11.359 1.34027 11.5265 1.74737 11.525 2.225V3.03C13.0583 3.41334 14.3042 4.22332 15.2625 5.45995C16.2208 6.69658 16.7 8.10993 16.7 9.7V17.75H19V20.05H0.600006ZM9.8 23.5C9.1675 23.5 8.62624 23.275 8.1762 22.8249C7.72617 22.3749 7.50077 21.8333 7.5 21.2H12.1C12.1 21.8325 11.875 22.3741 11.425 22.8249C10.9749 23.2757 10.4333 23.5008 9.8 23.5ZM5.20001 17.75H14.4V9.7C14.4 8.435 13.9496 7.35208 13.0488 6.45125C12.1479 5.55042 11.065 5.1 9.8 5.1C8.535 5.1 7.45209 5.55042 6.55125 6.45125C5.65042 7.35208 5.20001 8.435 5.20001 9.7V17.75Z" fill="#444746"/>
</svg>
