<svg width="24" height="24" viewBox="0 0 24 24" fill="none" xmlns="http://www.w3.org/2000/svg">
<path d="M10.9137 0.643967C6.40905 0.989998 0.822021 2.91904 0.822021 6.19317C0.822021 9.24398 6.33522 11.2484 12.3294 10.5778C16.5836 10.102 20.1636 8.43009 21.7315 6.39876C19.6652 10.2577 14.9954 11.3835 10.7685 11.8452C16.0304 12.0866 23.0746 10.2989 23.0746 6.02189C23.0746 2.99718 17.5614 0.966889 11.5672 1.63748C7.31294 2.11322 3.76933 3.78515 2.20137 5.81643C3.06433 3.50714 6.48855 1.41628 10.9137 0.643967ZM13.5406 2.55947C17.1681 2.5305 19.9469 3.66881 19.9469 5.28919C19.9469 5.5109 19.8948 5.73136 19.7956 5.94792C18.3041 5.00236 15.668 4.23698 12.8031 4.11286C12.4186 4.09617 12.0336 4.09198 11.6488 4.10029C9.23608 4.15453 6.76305 4.72983 4.84666 6.20311C5.08207 4.48856 8.36894 2.90179 12.3898 2.60648C12.7728 2.57824 13.1566 2.56253 13.5407 2.55937L13.5406 2.55947ZM11.9452 4.97269C12.2193 4.97095 12.4929 4.97629 12.7651 4.98806C15.4598 5.10478 18.0084 5.88487 19.2852 6.66422C18.9749 6.98259 18.564 7.28475 18.0714 7.5614C16.9046 7.02468 15.0966 6.66797 13.1064 6.66412C12.9543 6.66381 12.8012 6.66561 12.6472 6.66951C10.5835 6.72187 8.37298 7.17876 6.62622 8.36123C5.88452 8.04136 5.3381 7.63401 5.05404 7.16301C6.87438 5.59373 9.42874 4.98848 11.9451 4.97273L11.9452 4.97269ZM13.1038 7.54097C14.5702 7.54907 15.9554 7.7819 16.9559 8.08823C15.6873 8.59415 14.1057 8.9557 12.3898 9.0817C10.6233 9.21145 8.99965 9.07031 7.71288 8.72967C9.17698 7.93692 10.9594 7.58864 12.6694 7.54528C12.8148 7.54153 12.9596 7.54009 13.1037 7.54097H13.1038ZM3.83791 10.8202C4.07222 11.022 4.31276 11.2166 4.55918 11.4035C4.56513 11.4146 4.57155 11.4256 4.57746 11.4368L4.60521 11.4379C7.4913 13.6042 10.2157 13.8907 13.4208 13.8749C13.4209 13.8749 13.421 13.8749 13.4211 13.8748V13.8749H13.4208C9.95262 14.8394 7.12844 14.79 4.72544 13.4851C8.2376 18.0839 16.0819 15.9494 20.4389 11.299C18.4218 12.3821 15.2798 12.9803 11.7521 12.7916C8.6471 12.6254 5.84126 11.8817 3.83787 10.8202H3.83791ZM15.2134 15.7192C12.0289 17.2948 8.46855 17.7128 5.87852 16.2458C6.10854 17.0372 6.57152 17.5657 7.20485 17.9173C7.93446 18.3224 8.91016 18.4728 9.97048 18.365C11.5756 18.2016 13.3488 17.4425 14.6939 16.2529C14.8643 16.0751 15.0381 15.8971 15.2135 15.7191L15.2134 15.7192ZM12.2928 18.7042C11.5534 18.9812 10.7961 19.1615 10.0591 19.2365C8.97982 19.3463 7.9353 19.2295 7.05405 18.8224C7.76304 19.5216 8.55705 20.0111 9.30171 20.2297C10.0365 20.4455 10.7006 20.4063 11.2302 20.1083C11.6705 19.8606 12.0477 19.423 12.2928 18.7042ZM6.52605 19.5462C6.87799 20.748 7.41133 21.9622 8.31433 23.1688H10.1212C10.1508 23.1317 10.1863 23.1064 10.2032 23.0579C10.4347 22.3964 10.7122 21.7519 11.0336 21.129C10.4088 21.3023 9.72532 21.2672 9.05491 21.0704C8.17676 20.8125 7.30024 20.2851 6.52601 19.5462H6.52605Z" fill="#444746"/>
</svg>
