<svg width="18" height="24" viewBox="0 0 18 24" fill="none" xmlns="http://www.w3.org/2000/svg">
<path d="M12.4594 11.048L15.4046 7.17094L17.4136 8.69719L14.4685 12.5761L12.4594 11.048ZM11.8566 10.6012L14.9883 6.47625L12.8789 4.87547L9.74721 9.00047L11.8566 10.6012ZM10.5685 6.01781L9.66377 7.87265L12.3356 4.35703L10.343 2.84297L8.64424 5.07937L10.5685 6.01781ZM9.59627 2.58469L7.41002 0.923906L5.44127 3.51656L7.95705 4.74328L9.59627 2.58469ZM14.6119 13.6247L8.09627 8.81015L7.63127 8.85281L7.84502 8.94656L10.7588 15.4355L9.98439 15.5409L7.28064 9.5175L5.40564 8.68781L5.21814 7.24219L7.06549 8.1525L8.76986 7.99641L9.56674 6.36375L4.3683 3.82828L0.586426 9.10219L5.32502 16.2502L4.26096 23.0761H12.9844V17.4666L14.6386 15.173L15.1406 12.9267L14.6119 13.6247Z" fill="#444746"/>
</svg>
