<svg width="31" height="23" viewBox="0 0 31 23" fill="none" xmlns="http://www.w3.org/2000/svg">
<path d="M9.68 8.77751C9.17898 8.11106 8.22895 7.97399 7.5625 8.47501C6.89605 8.97602 6.75899 9.92606 7.26 10.5925L9.06082 12.9936C9.2877 13.2961 9.25461 13.7168 8.98992 13.9815L8.38492 14.5865C8.06824 14.9031 7.55305 14.8795 7.26945 14.5345L3.025 9.43922V2.42501C3.025 1.5884 2.3491 0.912506 1.5125 0.912506C0.675898 0.912506 0 1.5884 0 2.42501V12.7478C0 13.263 0.174883 13.764 0.496289 14.1658L5.41664 20.5136C5.65297 20.8208 5.81367 21.1706 5.9082 21.5392C5.99328 21.8654 6.29106 22.0875 6.63137 22.0875H12.8563C13.2722 22.0875 13.6125 21.7472 13.6125 21.3313V16.0375C13.6125 14.7282 13.1871 13.4568 12.4025 12.4075L9.68 8.77751ZM28.7375 0.912506C27.9009 0.912506 27.225 1.5884 27.225 2.42501V9.43922L22.9805 14.5345C22.697 14.8748 22.177 14.8984 21.8651 14.5865L21.2601 13.9815C20.9954 13.7168 20.9623 13.2961 21.1892 12.9936L22.99 10.5925C23.491 9.92606 23.3539 8.97602 22.6875 8.47501C22.0211 7.97399 21.071 8.11106 20.57 8.77751L17.8475 12.4075C17.0629 13.4568 16.6375 14.7282 16.6375 16.0375V21.3313C16.6375 21.7472 16.9778 22.0875 17.3938 22.0875H23.6186C23.9542 22.0875 24.2567 21.8654 24.3418 21.5392C24.4363 21.1706 24.597 20.8208 24.8334 20.5136L29.7537 14.1658C30.0751 13.764 30.25 13.263 30.25 12.7478V2.42501C30.25 1.5884 29.5741 0.912506 28.7375 0.912506Z" fill="#1F1F1F"/>
</svg>
