<svg width="24" height="24" viewBox="0 0 24 24" fill="none" xmlns="http://www.w3.org/2000/svg">
<path d="M19.7381 9.55876C19.7384 13.2315 22.3893 13.2315 22.3893 9.55876C22.3893 7.37851 21.0637 5.61038 21.0637 5.61038C21.0637 5.61038 19.7381 7.37851 19.7381 9.55876ZM17.7776 16.1989C17.7776 18.9953 20.4288 18.9956 20.4288 16.1989C20.4288 14.5391 19.1032 13.1925 19.1032 13.1925C19.1032 13.1925 17.7776 14.5391 17.7776 16.1989ZM7.92407 12.9356L11.3231 16.374L16.6646 10.971L13.2656 7.53301L7.92407 12.9356Z" fill="#444746"/>
<path d="M16.1737 7.527L15.4511 6.79612L14.7435 7.512L13.2656 6.01725L3.0255 16.374L4.503 17.8684L2.823 19.5645L1.61025 18.3379L1.125 18.8295L5.49525 23.25L5.98125 22.7587L4.76625 21.5299L6.44587 19.833L7.92375 21.3274L18.1635 10.971L16.686 9.47663L17.3936 8.76113L16.6706 8.02987L22.401 2.23463L22.875 0.75L16.1737 7.527ZM7.92413 20.2609L4.08037 16.374L13.2656 7.08413L17.109 10.971L7.92413 20.2609Z" fill="#444746"/>
</svg>
