<svg width="14" height="14" viewBox="0 0 14 14" fill="none" xmlns="http://www.w3.org/2000/svg">
<path d="M12.9625 13.75C11.4 13.75 9.85625 13.4095 8.33125 12.7285C6.80625 12.0475 5.41875 11.0817 4.16875 9.83125C2.91875 8.58075 1.95325 7.19325 1.27225 5.66875C0.59125 4.14425 0.2505 2.6005 0.25 1.0375C0.25 0.8125 0.325 0.625 0.475 0.475C0.625 0.325 0.8125 0.25 1.0375 0.25H4.075C4.25 0.25 4.40625 0.3095 4.54375 0.4285C4.68125 0.5475 4.7625 0.688 4.7875 0.85L5.275 3.475C5.3 3.675 5.29375 3.84375 5.25625 3.98125C5.21875 4.11875 5.15 4.2375 5.05 4.3375L3.23125 6.175C3.48125 6.6375 3.778 7.08425 4.1215 7.51525C4.465 7.94625 4.84325 8.362 5.25625 8.7625C5.64375 9.15 6.05 9.5095 6.475 9.841C6.9 10.1725 7.35 10.4755 7.825 10.75L9.5875 8.9875C9.7 8.875 9.847 8.79075 10.0285 8.73475C10.21 8.67875 10.388 8.663 10.5625 8.6875L13.15 9.2125C13.325 9.2625 13.4688 9.35325 13.5812 9.48475C13.6937 9.61625 13.75 9.763 13.75 9.925V12.9625C13.75 13.1875 13.675 13.375 13.525 13.525C13.375 13.675 13.1875 13.75 12.9625 13.75Z" fill="#444746"/>
</svg>
