<svg width="24" height="24" viewBox="0 0 24 24" fill="none" xmlns="http://www.w3.org/2000/svg">
<path d="M11.8949 9.00975L11.4524 10.4347C11.3624 10.7272 11.5799 11.0197 11.8874 11.0197H12.5399C12.8474 11.0197 13.0649 10.7272 12.9749 10.4347L12.5324 9.00975C12.5118 8.94131 12.4696 8.88136 12.4122 8.83874C12.3548 8.79613 12.2852 8.77312 12.2137 8.77312C12.1422 8.77312 12.0726 8.79613 12.0152 8.83874C11.9578 8.88136 11.9156 8.94131 11.8949 9.00975ZM10.9604 11.619C11.3204 11.8065 11.7554 11.919 12.2129 11.919C12.6704 11.919 13.0979 11.8065 13.4654 11.619C13.5929 11.559 13.7204 11.694 13.6454 11.814C13.491 12.0535 13.279 12.2504 13.0287 12.3867C12.7784 12.523 12.4979 12.5943 12.2129 12.594C11.6129 12.594 11.0879 12.2865 10.7804 11.814C10.7054 11.694 10.8404 11.5515 10.9604 11.619ZM10.3574 8.69475C10.5974 8.69475 10.7924 8.88975 10.7924 9.12975C10.7924 9.19725 10.7699 9.26475 10.7399 9.33225H9.97495C9.93992 9.26652 9.92235 9.19291 9.92393 9.11845C9.9255 9.04399 9.94617 8.97118 9.98395 8.907C9.99483 8.92254 10.0089 8.93561 10.0251 8.94536C10.0414 8.95512 10.0596 8.96133 10.0784 8.9636C10.0972 8.96587 10.1163 8.96414 10.1344 8.95854C10.1526 8.95293 10.1693 8.94356 10.1836 8.93105C10.1978 8.91854 10.2093 8.90316 10.2172 8.88592C10.2251 8.86869 10.2293 8.84997 10.2295 8.831C10.2297 8.81203 10.2259 8.79323 10.2184 8.77583C10.2108 8.75842 10.1997 8.74281 10.1857 8.73C10.2398 8.7072 10.2979 8.69522 10.3567 8.69475M14.0774 8.69475C14.0237 8.69476 13.9703 8.70441 13.9199 8.72325C13.936 8.73577 13.9489 8.75175 13.9579 8.76999C13.9669 8.78824 13.9716 8.80827 13.9718 8.82861C13.9719 8.84894 13.9675 8.86904 13.9588 8.88741C13.9501 8.90579 13.9373 8.92195 13.9215 8.93471C13.9057 8.94747 13.8872 8.95649 13.8674 8.96109C13.8476 8.96569 13.827 8.96576 13.8071 8.9613C13.7873 8.95683 13.7687 8.94794 13.7528 8.93529C13.7369 8.92264 13.724 8.90656 13.7152 8.88825C13.6682 8.96009 13.6427 9.04388 13.6417 9.12975C13.6417 9.19725 13.6567 9.26475 13.6867 9.33225H14.4592C14.4967 9.27225 14.5117 9.20475 14.5117 9.12975C14.5117 9.01438 14.4659 8.90373 14.3843 8.82216C14.3027 8.74058 14.1921 8.69475 14.0767 8.69475" fill="#444746"/>
<path d="M20.988 23.229H3C2.80109 23.229 2.61032 23.15 2.46967 23.0093C2.32902 22.8687 2.25 22.6779 2.25 22.479C2.25 20.184 4.06275 16.2915 7.48425 14.319C7.12053 13.8051 6.8967 13.2055 6.83475 12.579L6.72 11.055C6.43266 10.8598 6.19702 10.5978 6.03333 10.2915C5.86963 9.98511 5.78279 9.64359 5.78025 9.29625C5.78025 8.76525 5.9805 8.25375 6.34125 7.86375L6.19125 7.07625C5.99986 6.94525 5.86009 6.75165 5.796 6.52875L5.31375 4.7655C5.17943 4.27374 5.23771 3.74928 5.47671 3.29901C5.71572 2.84874 6.11744 2.50657 6.6 2.34225L10.3403 1.06725C11.5588 0.642338 12.8852 0.642338 14.1038 1.06725L17.8088 2.34225H17.8125C18.2961 2.5081 18.6972 2.85395 18.9325 3.3079C19.1677 3.76186 19.2189 4.289 19.0755 4.77975L18.5993 6.51975C18.5615 6.65273 18.4969 6.77656 18.4094 6.88362C18.322 6.99068 18.2135 7.0787 18.0907 7.14225L17.9902 7.67925C18.2607 7.90595 18.4701 8.19665 18.5996 8.5249C18.729 8.85316 18.7744 9.20857 18.7316 9.55882C18.6887 9.90907 18.559 10.2431 18.3542 10.5304C18.1494 10.8178 17.8761 11.0494 17.559 11.2042L17.457 12.5617C17.3918 13.2269 17.1465 13.8616 16.7475 14.3977C20.2605 16.5052 21.738 20.5837 21.738 22.4827C21.737 22.681 21.6576 22.8708 21.517 23.0107C21.3765 23.1505 21.1863 23.229 20.988 23.229ZM12.2123 17.5987L11.271 18.2197L11.6805 18.9375L11.064 21.729H13.281L12.747 18.9517L13.164 18.2205L12.2123 17.5987ZM10.215 17.5065C10.2675 17.709 10.5525 17.7952 10.7475 17.6662L11.9625 16.8652C11.5249 16.8136 11.1133 16.6302 10.7823 16.3395C10.4512 16.0487 10.2162 15.6643 10.1085 15.237L9.6735 15.0345L10.0365 16.779L10.215 17.5065ZM14.3325 15.2332C14.2228 15.6628 13.9853 16.0489 13.6515 16.3406C13.3176 16.6322 12.9031 16.8157 12.4628 16.8667L13.6875 17.6662C13.8825 17.7952 14.1675 17.7097 14.22 17.5065L14.3985 16.779L14.7623 15.0337L14.3325 15.2332ZM16.8638 9.87225C16.9746 9.82139 17.0691 9.74045 17.1363 9.63864C17.2035 9.53683 17.2408 9.41821 17.244 9.29625C17.2424 9.18879 17.2136 9.08348 17.1604 8.99012C17.1071 8.89676 17.0312 8.81837 16.9395 8.76225L16.8638 9.87225ZM13.7835 8.235H10.6447C11.0017 8.38725 11.2703 8.709 11.3393 9.099C11.3618 9.219 11.2642 9.3315 11.1442 9.3315H11.0917C11.1067 9.264 11.1217 9.1965 11.1217 9.129C11.1143 8.7165 10.7767 8.3715 10.3568 8.3715C10.24 8.37142 10.1249 8.39838 10.0204 8.45027C9.91585 8.50217 9.82477 8.57758 9.75428 8.67059C9.68379 8.76361 9.63582 8.87169 9.61413 8.98636C9.59244 9.10103 9.59761 9.21917 9.62925 9.3315H9.24675C9.09675 9.3315 8.98425 9.189 9.02175 9.039C9.12675 8.64 9.42675 8.3205 9.8145 8.196C9.70435 8.17938 9.59499 8.15786 9.48675 8.1315C9.0238 8.02541 8.58056 7.8467 8.1735 7.602L8.48025 12.0997C8.60775 13.431 9.6255 14.3572 10.8517 14.3572H13.5892C14.8073 14.3572 15.8258 13.4392 15.96 12.0982L16.269 7.569C15.9067 7.80099 15.5115 7.97697 15.0968 8.091C14.9408 8.138 14.78 8.17325 14.6145 8.19675C15.0007 8.322 15.3007 8.64075 15.4042 9.03975C15.4417 9.18975 15.3293 9.33225 15.1793 9.33225H14.7968C14.8284 9.21992 14.8336 9.10178 14.8119 8.98711C14.7902 8.87244 14.7422 8.76436 14.6717 8.67134C14.6012 8.57833 14.5102 8.50292 14.4056 8.45102C14.3011 8.39913 14.186 8.37217 14.0693 8.37225C13.6493 8.37225 13.3118 8.71725 13.3118 9.13725C13.3118 9.20475 13.3192 9.27225 13.3342 9.33225H13.2817C13.1617 9.33225 13.0642 9.21975 13.0868 9.09975C13.1617 8.709 13.428 8.38725 13.7835 8.235ZM16.647 6.3915H16.671C16.6897 6.36341 16.7065 6.3341 16.7213 6.30375C16.7317 6.26523 16.7453 6.22761 16.7618 6.19125C16.8398 5.86125 16.6672 5.51775 16.3755 5.43525C13.6665 4.64165 10.7871 4.63905 8.07675 5.42775C7.78425 5.51025 7.611 5.85525 7.69725 6.18525C7.71725 6.26125 7.74825 6.32875 7.79025 6.38775C10.6934 5.62504 13.7445 5.62633 16.647 6.3915ZM7.5045 8.823C7.43476 8.88153 7.37853 8.95447 7.33968 9.03682C7.30084 9.11917 7.28031 9.20895 7.2795 9.3C7.28092 9.40539 7.30845 9.50879 7.35963 9.60093C7.41081 9.69307 7.48403 9.77109 7.57275 9.828L7.5045 8.823ZM11.1855 15.3795C11.2627 15.6337 11.5883 15.9645 12.1875 15.9765H12.237C12.834 15.969 13.167 15.6412 13.2518 15.3817C13.1818 15.3857 13.1118 15.3877 13.0417 15.3877H11.4367C11.3523 15.3877 11.2685 15.385 11.1855 15.3795ZM15.5392 21.0502C16.1017 21.0502 16.5668 20.5852 16.5743 20.0152V18.7552C16.5743 18.5077 16.3718 18.3052 16.1243 18.3052H14.9618C14.7142 18.3052 14.5118 18.5077 14.5118 18.7552V20.0227C14.5118 20.5927 14.9692 21.0502 15.5392 21.0502ZM10.0717 19.4977H7.29675C7.23675 19.4977 7.19175 19.5427 7.19175 19.6027V20.2627C7.19175 20.3227 7.23675 20.3677 7.29675 20.3677H10.0717C10.1318 20.3677 10.1768 20.3227 10.1768 20.2627V19.6027C10.1768 19.5427 10.1318 19.4977 10.0717 19.4977ZM13.1243 2.75775C13.1243 2.59275 12.9143 2.53275 12.8243 2.66775C12.7568 2.76525 12.6143 2.76525 12.5543 2.66775L12.3892 2.42025C12.3217 2.32275 12.1793 2.32275 12.1193 2.42025L11.9543 2.67525C11.8868 2.77275 11.7443 2.77275 11.6842 2.67525C11.5943 2.54025 11.3842 2.60025 11.3842 2.76525V3.39525C11.3842 3.88275 11.7743 4.27275 12.2618 4.27275C12.7493 4.27275 13.1392 3.88275 13.1392 3.39525V3.06525C13.1242 3.05025 13.1243 3.02775 13.1243 3.01275V2.75775Z" fill="#444746"/>
</svg>
