<svg width="24" height="24" viewBox="0 0 24 24" fill="none" xmlns="http://www.w3.org/2000/svg">
<rect width="24" height="24" rx="12" fill="#444746"/>
<path fill-rule="evenodd" clip-rule="evenodd" d="M8.66667 7.83333C8.66667 6.94928 9.01786 6.10143 9.64298 5.47631C10.2681 4.85119 11.1159 4.5 12 4.5C12.8841 4.5 13.7319 4.85119 14.357 5.47631C14.9821 6.10143 15.3333 6.94928 15.3333 7.83333C15.3333 8.71739 14.9821 9.56523 14.357 10.1904C13.7319 10.8155 12.8841 11.1667 12 11.1667C11.1159 11.1667 10.2681 10.8155 9.64298 10.1904C9.01786 9.56523 8.66667 8.71739 8.66667 7.83333ZM8.66667 12.8333C7.5616 12.8333 6.50179 13.2723 5.72039 14.0537C4.93899 14.8351 4.5 15.8949 4.5 17C4.5 17.663 4.76339 18.2989 5.23223 18.7678C5.70107 19.2366 6.33696 19.5 7 19.5H17C17.663 19.5 18.2989 19.2366 18.7678 18.7678C19.2366 18.2989 19.5 17.663 19.5 17C19.5 15.8949 19.061 14.8351 18.2796 14.0537C17.4982 13.2723 16.4384 12.8333 15.3333 12.8333H8.66667Z" fill="#F7F9FD"/>
</svg>
