<svg width="19" height="19" viewBox="0 0 19 19" fill="none" xmlns="http://www.w3.org/2000/svg">
<path d="M4.78821 5.72131L3.21007 4.15057L4.25476 3.10588L5.82549 4.68403L4.78821 5.72131ZM9.97461 1.34991V3.57266H8.49278V1.34991H9.97461ZM15.2573 4.15057L13.6792 5.72131L12.6419 4.68403L14.2126 3.10588L15.2573 4.15057ZM3.67684 8.38859V9.87042H1.4541V8.38859H3.67684ZM14.7905 8.38859H17.0133V9.87042H14.7905V8.38859ZM4.78821 15.4273H13.6792C14.0722 15.4273 14.4491 15.5834 14.727 15.8613C15.0049 16.1392 15.161 16.5161 15.161 16.9091H3.30639C3.30639 16.5161 3.46251 16.1392 3.7404 15.8613C4.0183 15.5834 4.39521 15.4273 4.78821 15.4273ZM9.2337 4.31357C10.4127 4.31357 11.5434 4.78193 12.3771 5.61562C13.2108 6.44931 13.6792 7.58004 13.6792 8.75905V14.6864H4.78821V8.75905C4.78821 7.58004 5.25658 6.44931 6.09026 5.61562C6.92395 4.78193 8.05468 4.31357 9.2337 4.31357Z" fill="#CC3E2E"/>
</svg>
