<svg width="157" height="25" viewBox="0 0 157 25" fill="none" xmlns="http://www.w3.org/2000/svg">
<path d="M10.7936 18H9.54889L2.66729 7.54423V18H1.42255V5.57043H2.66729L9.54889 16.0084V5.57043H10.7936V18ZM13.7818 6.45953C13.5329 6.45953 13.3195 6.37062 13.1417 6.1928C12.9639 6.01498 12.8749 5.79567 12.8749 5.53487C12.8749 5.27407 12.9639 5.06068 13.1417 4.89472C13.3195 4.7169 13.5329 4.62799 13.7818 4.62799C14.0308 4.62799 14.2442 4.7169 14.422 4.89472C14.5998 5.06068 14.6887 5.27407 14.6887 5.53487C14.6887 5.79567 14.5998 6.01498 14.422 6.1928C14.2442 6.37062 14.0308 6.45953 13.7818 6.45953ZM14.4042 8.29107V18H13.1595V8.29107H14.4042ZM17.9964 10.4249C18.3046 9.77289 18.7907 9.23351 19.4545 8.80674C20.1303 8.36812 20.9304 8.14881 21.8551 8.14881C22.7323 8.14881 23.5207 8.35627 24.2201 8.77118C24.9314 9.17424 25.4826 9.75511 25.8738 10.5138C26.2769 11.2606 26.4784 12.132 26.4784 13.1278C26.4784 14.1235 26.2769 15.0008 25.8738 15.7595C25.4826 16.5182 24.9314 17.105 24.2201 17.5199C23.5207 17.9348 22.7323 18.1423 21.8551 18.1423C20.9423 18.1423 20.148 17.9289 19.4723 17.5021C18.7966 17.0635 18.3046 16.5182 17.9964 15.8662V22.5877H16.7695V8.29107H17.9964V10.4249ZM25.2159 13.1278C25.2159 12.3216 25.0558 11.6281 24.7358 11.0473C24.4276 10.4545 24.0008 10.0041 23.4555 9.69584C22.9102 9.38762 22.2937 9.23351 21.6062 9.23351C20.9423 9.23351 20.3318 9.39355 19.7746 9.71362C19.2293 10.0337 18.7966 10.4901 18.4765 11.0828C18.1565 11.6756 17.9964 12.3631 17.9964 13.1455C17.9964 13.9279 18.1565 14.6155 18.4765 15.2082C18.7966 15.801 19.2293 16.2574 19.7746 16.5774C20.3318 16.8975 20.9423 17.0576 21.6062 17.0576C22.2937 17.0576 22.9102 16.9034 23.4555 16.5952C24.0008 16.2752 24.4276 15.8188 24.7358 15.226C25.0558 14.6214 25.2159 13.922 25.2159 13.1278ZM29.5423 10.4249C29.8505 9.77289 30.3366 9.23351 31.0004 8.80674C31.6761 8.36812 32.4763 8.14881 33.401 8.14881C34.2782 8.14881 35.0666 8.35627 35.766 8.77118C36.4773 9.17424 37.0285 9.75511 37.4197 10.5138C37.8228 11.2606 38.0243 12.132 38.0243 13.1278C38.0243 14.1235 37.8228 15.0008 37.4197 15.7595C37.0285 16.5182 36.4773 17.105 35.766 17.5199C35.0666 17.9348 34.2782 18.1423 33.401 18.1423C32.4882 18.1423 31.6939 17.9289 31.0182 17.5021C30.3425 17.0635 29.8505 16.5182 29.5423 15.8662V22.5877H28.3154V8.29107H29.5423V10.4249ZM36.7618 13.1278C36.7618 12.3216 36.6017 11.6281 36.2817 11.0473C35.9734 10.4545 35.5467 10.0041 35.0014 9.69584C34.4561 9.38762 33.8396 9.23351 33.152 9.23351C32.4882 9.23351 31.8777 9.39355 31.3205 9.71362C30.7752 10.0337 30.3425 10.4901 30.0224 11.0828C29.7023 11.6756 29.5423 12.3631 29.5423 13.1455C29.5423 13.9279 29.7023 14.6155 30.0224 15.2082C30.3425 15.801 30.7752 16.2574 31.3205 16.5774C31.8777 16.8975 32.4882 17.0576 33.152 17.0576C33.8396 17.0576 34.4561 16.9034 35.0014 16.5952C35.5467 16.2752 35.9734 15.8188 36.2817 15.226C36.6017 14.6214 36.7618 13.922 36.7618 13.1278ZM47.8631 8.29107L42.1018 22.57H40.8037L42.6886 17.9467L38.7054 8.29107H40.0746L43.3821 16.5774L46.5828 8.29107H47.8631Z" fill="#1F1F1F"/>
<path d="M55.1434 18L52.5473 13.2878H51.8182V18H48.7775V5.51709H53.8809C54.8648 5.51709 55.7006 5.68898 56.3882 6.03276C57.0876 6.37655 57.6092 6.85073 57.953 7.45532C58.2968 8.04805 58.4686 8.71191 58.4686 9.44689C58.4686 10.2767 58.2316 11.0176 57.7574 11.6696C57.295 12.3216 56.6075 12.784 55.6947 13.0566L58.5753 18H55.1434ZM51.8182 11.1362H53.7031C54.2603 11.1362 54.6752 10.9998 54.9478 10.7272C55.2323 10.4545 55.3746 10.0693 55.3746 9.57137C55.3746 9.09718 55.2323 8.72376 54.9478 8.45111C54.6752 8.17845 54.2603 8.04212 53.7031 8.04212H51.8182V11.1362ZM69.2773 12.8788C69.2773 13.1633 69.2595 13.4597 69.2239 13.7679H62.3423C62.3897 14.3843 62.5853 14.8585 62.9291 15.1905C63.2848 15.5105 63.7175 15.6706 64.2272 15.6706C64.9859 15.6706 65.5134 15.3505 65.8098 14.7103H69.0461C68.8801 15.3623 68.5779 15.9492 68.1392 16.4708C67.7125 16.9924 67.1731 17.4013 66.5211 17.6977C65.8691 17.9941 65.14 18.1423 64.3339 18.1423C63.3618 18.1423 62.4964 17.9348 61.7377 17.5199C60.979 17.105 60.3863 16.5122 59.9595 15.7417C59.5328 14.9711 59.3194 14.0702 59.3194 13.0388C59.3194 12.0075 59.5269 11.1065 59.9418 10.336C60.3685 9.56544 60.9613 8.97271 61.72 8.5578C62.4787 8.14288 63.35 7.93543 64.3339 7.93543C65.2941 7.93543 66.1477 8.13696 66.8945 8.54001C67.6413 8.94307 68.2222 9.51802 68.6371 10.2649C69.0639 11.0117 69.2773 11.883 69.2773 12.8788ZM66.1654 12.0786C66.1654 11.557 65.9876 11.1421 65.632 10.8339C65.2763 10.5257 64.8318 10.3716 64.2983 10.3716C63.7886 10.3716 63.3559 10.5197 63.0003 10.8161C62.6565 11.1125 62.4431 11.5333 62.3601 12.0786H66.1654ZM74.4645 18.1423C73.5991 18.1423 72.8285 17.9941 72.1528 17.6977C71.4771 17.4013 70.9436 16.9983 70.5524 16.4885C70.1612 15.9669 69.9419 15.3861 69.8945 14.7459H72.8997C72.9352 15.0897 73.0953 15.3683 73.3798 15.5817C73.6643 15.795 74.014 15.9017 74.4289 15.9017C74.8082 15.9017 75.0987 15.8306 75.3002 15.6883C75.5136 15.5342 75.6203 15.3386 75.6203 15.1015C75.6203 14.817 75.4721 14.6096 75.1757 14.4792C74.8794 14.3369 74.3993 14.1828 73.7354 14.0168C73.0241 13.8509 72.4314 13.679 71.9572 13.5012C71.483 13.3115 71.074 13.0211 70.7303 12.6299C70.3865 12.2268 70.2146 11.6874 70.2146 11.0117C70.2146 10.4427 70.3687 9.927 70.6769 9.46467C70.997 8.99049 71.4593 8.61707 72.0639 8.34441C72.6803 8.07176 73.4094 7.93543 74.2511 7.93543C75.4958 7.93543 76.4738 8.24365 77.1851 8.86009C77.9082 9.47653 78.3231 10.2945 78.4298 11.314H75.6203C75.5729 10.9702 75.4188 10.6976 75.158 10.496C74.909 10.2945 74.5771 10.1937 74.1622 10.1937C73.8065 10.1937 73.5339 10.2649 73.3442 10.4071C73.1545 10.5375 73.0597 10.7213 73.0597 10.9584C73.0597 11.2429 73.2079 11.4563 73.5042 11.5985C73.8125 11.7408 74.2866 11.883 74.9268 12.0253C75.6618 12.2149 76.2604 12.4046 76.7228 12.5943C77.1851 12.7721 77.5882 13.0685 77.9319 13.4834C78.2876 13.8864 78.4713 14.4318 78.4832 15.1193C78.4832 15.7002 78.3172 16.2218 77.9853 16.6841C77.6652 17.1346 77.197 17.4903 76.5805 17.7511C75.9759 18.0119 75.2706 18.1423 74.4645 18.1423ZM82.9307 9.48246C83.2271 9.02013 83.6361 8.64671 84.1577 8.36219C84.6793 8.07768 85.2898 7.93543 85.9892 7.93543C86.8072 7.93543 87.5481 8.14288 88.212 8.5578C88.8758 8.97271 89.3974 9.56544 89.7768 10.336C90.168 11.1065 90.3636 12.0016 90.3636 13.0211C90.3636 14.0406 90.168 14.9415 89.7768 15.7239C89.3974 16.4945 88.8758 17.0931 88.212 17.5199C87.5481 17.9348 86.8072 18.1423 85.9892 18.1423C85.3017 18.1423 84.6912 18 84.1577 17.7155C83.6361 17.431 83.2271 17.0635 82.9307 16.613V22.73H79.89V8.07768H82.9307V9.48246ZM87.2695 13.0211C87.2695 12.2624 87.0561 11.6696 86.6294 11.2429C86.2145 10.8042 85.6988 10.5849 85.0824 10.5849C84.4778 10.5849 83.9621 10.8042 83.5353 11.2429C83.1204 11.6815 82.913 12.2801 82.913 13.0388C82.913 13.7975 83.1204 14.3962 83.5353 14.8348C83.9621 15.2734 84.4778 15.4927 85.0824 15.4927C85.6869 15.4927 86.2026 15.2734 86.6294 14.8348C87.0561 14.3843 87.2695 13.7798 87.2695 13.0211ZM96.022 18.1423C95.0499 18.1423 94.1727 17.9348 93.3903 17.5199C92.6197 17.105 92.0092 16.5122 91.5587 15.7417C91.1201 14.9711 90.9008 14.0702 90.9008 13.0388C90.9008 12.0193 91.126 11.1243 91.5765 10.3538C92.027 9.57137 92.6434 8.97271 93.4258 8.5578C94.2082 8.14288 95.0855 7.93543 96.0576 7.93543C97.0296 7.93543 97.9069 8.14288 98.6893 8.5578C99.4717 8.97271 100.088 9.57137 100.539 10.3538C100.989 11.1243 101.214 12.0193 101.214 13.0388C101.214 14.0583 100.983 14.9593 100.521 15.7417C100.07 16.5122 99.448 17.105 98.6537 17.5199C97.8713 17.9348 96.9941 18.1423 96.022 18.1423ZM96.022 15.5105C96.6029 15.5105 97.0948 15.2971 97.4979 14.8704C97.9128 14.4436 98.1203 13.8331 98.1203 13.0388C98.1203 12.2446 97.9187 11.6341 97.5157 11.2073C97.1245 10.7805 96.6384 10.5672 96.0576 10.5672C95.4648 10.5672 94.9729 10.7805 94.5817 11.2073C94.1905 11.6222 93.9949 12.2327 93.9949 13.0388C93.9949 13.8331 94.1845 14.4436 94.5639 14.8704C94.9551 15.2971 95.4411 15.5105 96.022 15.5105ZM108.42 7.97099C109.582 7.97099 110.506 8.35034 111.194 9.10904C111.893 9.85588 112.243 10.8872 112.243 12.2031V18H109.22V12.6121C109.22 11.9482 109.048 11.4325 108.704 11.065C108.361 10.6976 107.898 10.5138 107.317 10.5138C106.737 10.5138 106.274 10.6976 105.93 11.065C105.587 11.4325 105.415 11.9482 105.415 12.6121V18H102.374V8.07768H105.415V9.39355C105.723 8.95493 106.138 8.61114 106.659 8.36219C107.181 8.10139 107.768 7.97099 108.42 7.97099ZM117.939 18.1423C117.074 18.1423 116.303 17.9941 115.627 17.6977C114.952 17.4013 114.418 16.9983 114.027 16.4885C113.636 15.9669 113.417 15.3861 113.369 14.7459H116.374C116.41 15.0897 116.57 15.3683 116.854 15.5817C117.139 15.795 117.489 15.9017 117.903 15.9017C118.283 15.9017 118.573 15.8306 118.775 15.6883C118.988 15.5342 119.095 15.3386 119.095 15.1015C119.095 14.817 118.947 14.6096 118.65 14.4792C118.354 14.3369 117.874 14.1828 117.21 14.0168C116.499 13.8509 115.906 13.679 115.432 13.5012C114.958 13.3115 114.549 13.0211 114.205 12.6299C113.861 12.2268 113.689 11.6874 113.689 11.0117C113.689 10.4427 113.843 9.927 114.151 9.46467C114.472 8.99049 114.934 8.61707 115.538 8.34441C116.155 8.07176 116.884 7.93543 117.726 7.93543C118.97 7.93543 119.948 8.24365 120.66 8.86009C121.383 9.47653 121.798 10.2945 121.904 11.314H119.095C119.047 10.9702 118.893 10.6976 118.633 10.496C118.384 10.2945 118.052 10.1937 117.637 10.1937C117.281 10.1937 117.008 10.2649 116.819 10.4071C116.629 10.5375 116.534 10.7213 116.534 10.9584C116.534 11.2429 116.682 11.4563 116.979 11.5985C117.287 11.7408 117.761 11.883 118.401 12.0253C119.136 12.2149 119.735 12.4046 120.197 12.5943C120.66 12.7721 121.063 13.0685 121.407 13.4834C121.762 13.8864 121.946 14.4318 121.958 15.1193C121.958 15.7002 121.792 16.2218 121.46 16.6841C121.14 17.1346 120.672 17.4903 120.055 17.7511C119.451 18.0119 118.745 18.1423 117.939 18.1423ZM132.718 12.8788C132.718 13.1633 132.7 13.4597 132.665 13.7679H125.783C125.83 14.3843 126.026 14.8585 126.37 15.1905C126.725 15.5105 127.158 15.6706 127.668 15.6706C128.427 15.6706 128.954 15.3505 129.25 14.7103H132.487C132.321 15.3623 132.018 15.9492 131.58 16.4708C131.153 16.9924 130.614 17.4013 129.962 17.6977C129.31 17.9941 128.581 18.1423 127.775 18.1423C126.802 18.1423 125.937 17.9348 125.178 17.5199C124.42 17.105 123.827 16.5122 123.4 15.7417C122.973 14.9711 122.76 14.0702 122.76 13.0388C122.76 12.0075 122.967 11.1065 123.382 10.336C123.809 9.56544 124.402 8.97271 125.161 8.5578C125.919 8.14288 126.791 7.93543 127.775 7.93543C128.735 7.93543 129.588 8.13696 130.335 8.54001C131.082 8.94307 131.663 9.51802 132.078 10.2649C132.505 11.0117 132.718 11.883 132.718 12.8788ZM129.606 12.0786C129.606 11.557 129.428 11.1421 129.073 10.8339C128.717 10.5257 128.272 10.3716 127.739 10.3716C127.229 10.3716 126.797 10.5197 126.441 10.8161C126.097 11.1125 125.884 11.5333 125.801 12.0786H129.606Z" fill="#CC3E2E"/>
<path d="M142.788 8.72131L141.21 7.15057L142.255 6.10588L143.825 7.68403L142.788 8.72131ZM147.975 4.34991V6.57266H146.493V4.34991H147.975ZM153.257 7.15057L151.679 8.72131L150.642 7.68403L152.213 6.10588L153.257 7.15057ZM141.677 11.3886V12.8704H139.454V11.3886H141.677ZM152.791 11.3886H155.013V12.8704H152.791V11.3886ZM142.788 18.4273H151.679C152.072 18.4273 152.449 18.5834 152.727 18.8613C153.005 19.1392 153.161 19.5161 153.161 19.9091H141.306C141.306 19.5161 141.463 19.1392 141.74 18.8613C142.018 18.5834 142.395 18.4273 142.788 18.4273ZM147.234 7.31357C148.413 7.31357 149.543 7.78193 150.377 8.61562C151.211 9.44931 151.679 10.58 151.679 11.7591V17.6864H142.788V11.7591C142.788 10.58 143.257 9.44931 144.09 8.61562C144.924 7.78193 146.055 7.31357 147.234 7.31357Z" fill="#CC3E2E"/>
</svg>
