<svg width="40" height="31" viewBox="0 0 40 31" fill="none" xmlns="http://www.w3.org/2000/svg">
<path d="M9.39507 13.3888L8.64987 16.171C8.46927 16.846 8.43207 17.5444 8.50527 18.2344L6.39327 19.9732C5.99907 20.2978 5.41467 19.9474 5.51607 19.447L6.44247 14.8462C6.50607 14.5306 6.28287 14.2294 5.96247 14.1988L1.29087 13.7458C0.78267 13.6966 0.61707 13.036 1.04247 12.7534L4.95147 10.1554C5.21907 9.97719 5.27427 9.60639 5.07027 9.35799L2.08767 5.73339C1.76307 5.33919 2.11347 4.75539 2.61447 4.85619L7.21527 5.78259C7.53087 5.84619 7.83207 5.62299 7.86327 5.30259L8.31627 0.630989C8.36547 0.122188 9.02607 -0.0428116 9.30927 0.382588L11.9073 4.29099C12.0855 4.55859 12.4563 4.61379 12.7047 4.40979L16.3287 1.42719C16.7229 1.10259 17.3067 1.45299 17.2059 1.95339L16.5261 5.32299C16.3635 5.50599 16.2003 5.68839 16.0515 5.88699L14.1225 8.46519L13.4799 9.32439C11.5161 9.84999 9.92907 11.3962 9.39507 13.3888ZM39.0693 21.3394L38.3241 24.121C38.1363 24.8218 37.7613 25.4176 37.2711 25.8826C37.1079 26.037 36.9321 26.1775 36.7455 26.3026L35.9061 29.4364C35.8377 29.6926 35.7201 29.9224 35.5671 30.1192C35.1069 30.7096 34.3227 31 33.5547 30.7942L31.7001 30.2974C30.6759 30.0232 30.0681 28.9702 30.3423 27.946L30.8391 26.0914L16.0023 22.1158L15.5055 23.9704C15.2313 24.9946 14.1783 25.6024 13.1541 25.3282L11.2995 24.8314C10.5315 24.6256 9.99747 23.9818 9.89427 23.2408C9.86007 22.9936 9.87327 22.7356 9.94167 22.48L10.7811 19.3462C10.6818 19.1445 10.5997 18.9347 10.5357 18.7192C10.3437 18.0718 10.3167 17.368 10.5045 16.6672L11.2497 13.885C11.5683 12.697 12.4113 11.7952 13.4631 11.3524C13.8167 11.2033 14.1906 11.1079 14.5725 11.0692L15.6603 9.61539L17.5893 7.03719C17.7963 6.76059 18.0207 6.50319 18.2613 6.26679C18.7413 5.79339 19.2831 5.40039 19.8657 5.09619C20.1573 4.94379 20.4591 4.81359 20.7687 4.70679C21.3885 4.49199 22.0401 4.36899 22.7031 4.34439C23.3661 4.31979 24.0417 4.39359 24.7089 4.57239L32.0697 6.54459C32.7369 6.72339 33.3585 6.99699 33.9207 7.35039C34.7597 7.87716 35.4707 8.5843 36.0021 9.42039C36.5313 10.2532 36.8805 11.2108 37.0029 12.2398L37.3845 15.4372L37.5999 17.2402C38.2229 17.6901 38.6978 18.3152 38.9643 19.036C39.2277 19.7488 39.2817 20.5474 39.0693 21.3394ZM16.1349 14.2006C15.0219 13.9024 14.0823 14.443 13.7847 15.5524C13.4871 16.6618 14.0313 17.5996 15.1437 17.8978C16.2567 18.196 17.8761 18.8284 18.1731 17.719C18.4707 16.6096 17.2473 14.4988 16.1349 14.2006ZM33.5715 15.8908L33.1899 12.6934C33.1551 12.4012 33.0765 12.1216 32.9607 11.8618C32.6127 11.0824 31.9287 10.4812 31.0755 10.2526L23.7147 8.28039C23.1587 8.13147 22.5708 8.15253 22.0269 8.34085C21.483 8.52918 21.0079 8.87614 20.6631 9.33699L18.7341 11.9152L29.0541 14.68L33.5715 15.8908ZM34.6809 19.1698C33.5679 18.8716 31.4529 20.0884 31.1559 21.1972C30.8589 22.3066 32.5773 22.5688 33.6903 22.867C34.8033 23.1652 35.7429 22.6246 36.0405 21.5152C36.3375 20.4064 35.7939 19.468 34.6809 19.1698Z" fill="#CC3E2E"/>
</svg>
