<svg width="36" height="37" viewBox="0 0 36 37" fill="none" xmlns="http://www.w3.org/2000/svg">
<path d="M19.8042 0.790024C14.9805 0.790024 10.6722 2.9495 7.83093 6.33507C9.88496 6.34032 14.4255 6.56382 15.0399 8.26452C12.1589 7.35665 9.05846 7.42002 6.89988 7.56687C6.51965 8.12609 6.17748 8.71026 5.87568 9.31542C8.23871 8.6924 16.9755 9.06267 17.4857 10.9105C11.7868 9.51372 6.94143 10.2618 5.33133 10.5434C4.67373 12.2268 4.31253 14.0538 4.31253 15.9638C4.31253 24.344 11.5311 36.21 20.0868 36.21C24.4224 36.21 28.2693 33.1627 31.0096 29.0664C28.6544 30.8523 23.6566 33.3645 20.5845 31.665C26.7039 30.9904 31.0818 27.8416 32.2987 26.9135C34.1892 23.3778 35.2956 19.3811 35.2956 15.9638C35.2956 7.58352 28.3599 0.790024 19.8042 0.790024ZM19.804 12.1669C27.6853 12.1669 34.0745 14.2464 34.0745 16.8117C34.0745 18.4653 33.7374 19.3227 29.7397 20.1457C27.5355 20.5996 22.6052 17.8071 19.804 17.8071C17.1892 17.8071 13.27 20.908 11.1626 20.5084C6.91781 19.7035 5.53361 18.5259 5.53361 16.8117C5.53361 14.2464 11.9227 12.1669 19.804 12.1669ZM26.0954 15.159C24.5849 15.15 22.9776 15.4061 22.9848 15.9022C22.9984 16.8362 24.2871 17.5746 25.863 17.5515C27.439 17.5285 27.2547 16.3353 28.6918 15.8189C28.6854 15.3811 27.4281 15.1669 26.0953 15.159H26.0954ZM13.1442 15.3752C11.8115 15.3831 10.5542 15.5975 10.5477 16.0352C11.9849 16.5516 11.8005 17.7449 13.3766 17.7678C14.9526 17.7909 16.2412 17.0523 16.2549 16.1184C16.2621 15.6223 14.6547 15.3662 13.1442 15.3752ZM20.087 21.5583C22.4144 21.5583 24.3011 23.4509 24.3011 23.4509C24.3011 23.4509 22.1873 22.6181 19.8598 22.6181C17.5323 22.6181 15.8728 23.4509 15.8728 23.4509C15.8728 23.4509 17.7594 21.5583 20.087 21.5583ZM1.14386 30.1542C1.46966 30.3077 1.72758 27.129 5.06231 25.5594C4.45398 24.9245 4.12946 23.7115 3.99431 22.8967C1.53933 23.2086 -0.131593 29.2632 1.14386 30.1542ZM5.36711 27.0272C4.80378 27.0233 4.07261 27.0101 4.05873 28.2975C4.02138 31.7707 0.848357 35.5689 1.04913 35.6636C1.58448 35.9159 4.76898 33.2578 5.69208 31.2056C6.00401 30.5123 6.55578 27.0354 5.36711 27.0272Z" fill="#CC3E2E"/>
</svg>
