<svg width="32" height="33" viewBox="0 0 32 33" fill="none" xmlns="http://www.w3.org/2000/svg">
<path d="M-0.00012207 32.5V29.3C1.01321 29.3 1.76681 29.0333 2.26068 28.5C2.75454 27.9667 3.78761 27.7 5.35988 27.7C6.93214 27.7 7.95881 27.9667 8.43988 28.5C8.92095 29.0333 9.66761 29.3 10.6799 29.3C11.6921 29.3 12.4388 29.0333 12.9199 28.5C13.4009 27.9667 14.4276 27.7 15.9999 27.7C17.5199 27.7 18.5535 27.9667 19.1007 28.5C19.6479 29.0333 20.4009 29.3 21.3599 29.3C22.3732 29.3 23.1199 29.0333 23.5999 28.5C24.0799 27.9667 25.1065 27.7 26.6799 27.7C28.2532 27.7 29.2799 27.9667 29.7599 28.5C30.2399 29.0333 30.9865 29.3 31.9999 29.3V32.5C30.4532 32.5 29.4265 32.2333 28.9199 31.7C28.4132 31.1667 27.6665 30.9 26.6799 30.9C25.6932 30.9 24.9465 31.1667 24.4399 31.7C23.9332 32.2333 22.9065 32.5 21.3599 32.5C19.8132 32.5 18.7801 32.2333 18.2607 31.7C17.7412 31.1667 16.9876 30.9 15.9999 30.9C14.9865 30.9 14.2399 31.1667 13.7599 31.7C13.2799 32.2333 12.2532 32.5 10.6799 32.5C9.10655 32.5 8.07988 32.2333 7.59988 31.7C7.11988 31.1667 6.37321 30.9 5.35988 30.9C4.37321 30.9 3.62654 31.1667 3.11988 31.7C2.61321 32.2333 1.57321 32.5 -0.00012207 32.5ZM-0.00012207 25.3V22.1C1.01321 22.1 1.75988 21.8333 2.23988 21.3C2.71988 20.7667 3.74654 20.5 5.31988 20.5C5.47988 20.5 5.63988 20.5069 5.79988 20.5208C5.95988 20.5347 6.10654 20.5544 6.23988 20.58L4.71988 14.98L2.51988 17.86L-0.00012207 15.86L12.4399 0.500015L30.8799 7.54002L29.7199 10.54L26.3599 9.18002L29.5999 21.22C29.9732 21.4333 30.3396 21.6333 30.6991 21.82C31.0585 22.0067 31.4921 22.1 31.9999 22.1V25.3C30.4799 25.2733 29.4532 24.9997 28.9199 24.4792C28.3865 23.9587 27.6399 23.6989 26.6799 23.7C25.6665 23.7 24.9199 23.9667 24.4399 24.5C23.9599 25.0333 22.9332 25.3 21.3599 25.3C19.8399 25.3 18.8068 25.0333 18.2607 24.5C17.7145 23.9667 16.9609 23.7 15.9999 23.7C14.9865 23.7 14.2399 23.9667 13.7599 24.5C13.2799 25.0333 12.2532 25.3 10.6799 25.3C9.15988 25.3 8.13321 25.0333 7.59988 24.5C7.06654 23.9667 6.31988 23.7 5.35988 23.7C4.42654 23.7 3.67988 23.9667 3.11988 24.5C2.55988 25.0333 1.51988 25.3 -0.00012207 25.3ZM21.5199 22.06L19.2799 13.58L13.0799 15.22L14.5599 20.66C14.7732 20.6067 14.9935 20.5667 15.2207 20.54C15.4479 20.5133 15.7076 20.5 15.9999 20.5C17.5199 20.5 18.6068 20.7933 19.2607 21.38C19.9145 21.9667 20.6676 22.1933 21.5199 22.06Z" fill="#CC3E2E"/>
</svg>
