<svg width="38" height="35" viewBox="0 0 38 35" fill="none" xmlns="http://www.w3.org/2000/svg">
<path fill-rule="evenodd" clip-rule="evenodd" d="M18.9977 0.875016C19.3754 0.874606 19.7434 0.994247 20.0486 1.21666C20.3539 1.43908 20.5805 1.75275 20.6958 2.11239L28.5001 26.5013L31.5543 16.9585C31.6691 16.5988 31.8952 16.2849 32.2 16.0621C32.5048 15.8392 32.8725 15.719 33.2501 15.7188H36.2188C36.6912 15.7188 37.1443 15.9064 37.4783 16.2405C37.8124 16.5745 38.0001 17.0276 38.0001 17.5C38.0001 17.9724 37.8124 18.4255 37.4783 18.7596C37.1443 19.0936 36.6912 19.2813 36.2188 19.2813H34.5492L30.1958 32.8876C30.0804 33.2466 29.854 33.5597 29.5493 33.7819C29.2445 34.004 28.8772 34.1237 28.5001 34.1237C28.123 34.1237 27.7556 34.004 27.4509 33.7819C27.1461 33.5597 26.9197 33.2466 26.8043 32.8876L19.0119 8.53677L13.5732 25.7555C13.461 26.1103 13.2405 26.4211 12.9426 26.6442C12.6448 26.8672 12.2845 26.9914 11.9125 26.9993C11.5404 27.0071 11.1752 26.8983 10.8682 26.688C10.5612 26.4777 10.3278 26.1765 10.2007 25.8268L7.19869 17.5713L7.03244 18.0653C6.91435 18.4198 6.68774 18.7282 6.3847 18.9469C6.08165 19.1656 5.71751 19.2834 5.34381 19.2836H1.78131C1.30889 19.2836 0.855826 19.096 0.521777 18.7619C0.187728 18.4279 6.10352e-05 17.9748 6.10352e-05 17.5024C6.10352e-05 17.03 0.187728 16.5769 0.521777 16.2429C0.855826 15.9088 1.30889 15.7211 1.78131 15.7211H4.06131L5.43406 11.5958C5.55043 11.2444 5.77338 10.938 6.07191 10.7192C6.37045 10.5003 6.72974 10.3799 7.09985 10.3747C7.46996 10.3695 7.83251 10.4797 8.1371 10.69C8.44169 10.9003 8.67319 11.2003 8.79944 11.5483L11.7563 19.6826L17.3019 2.12189C17.4155 1.76087 17.641 1.44539 17.9459 1.2212C18.2508 0.997004 18.6192 0.87575 18.9977 0.875016Z" fill="#CC3E2E"/>
</svg>
