<svg width="24" height="29" viewBox="0 0 24 29" fill="none" xmlns="http://www.w3.org/2000/svg">
<path d="M21.0561 13.22C20.6881 12.74 20.2401 12.324 19.8241 11.908C18.7521 10.948 17.5361 10.26 16.5121 9.25201C14.1281 6.91601 13.6001 3.06001 15.1201 0.100006C13.6001 0.468006 12.2721 1.30001 11.1361 2.21201C6.99213 5.54001 5.36013 11.412 7.31213 16.452C7.37613 16.612 7.44013 16.772 7.44013 16.98C7.44013 17.332 7.20013 17.652 6.88013 17.78C6.51213 17.94 6.12813 17.844 5.82413 17.588C5.73332 17.5119 5.65737 17.4197 5.60013 17.316C3.79213 15.028 3.50413 11.748 4.72013 9.12401C2.04813 11.3 0.592128 14.98 0.800128 18.452C0.896128 19.252 0.992128 20.052 1.26413 20.852C1.48813 21.812 1.92013 22.772 2.40013 23.62C4.12813 26.388 7.12013 28.372 10.3361 28.772C13.7601 29.204 17.4241 28.58 20.0481 26.212C22.9761 23.556 24.0001 19.3 22.4961 15.652L22.2881 15.236C21.9521 14.5 21.0561 13.22 21.0561 13.22ZM16.0001 23.3C15.5521 23.684 14.8161 24.1 14.2401 24.26C12.4481 24.9 10.6561 24.004 9.60013 22.948C11.5041 22.5 12.6401 21.092 12.9761 19.668C13.2481 18.388 12.7361 17.332 12.5281 16.1C12.3361 14.916 12.3681 13.908 12.8001 12.804C13.1041 13.412 13.4241 14.02 13.8081 14.5C15.0401 16.1 16.9761 16.804 17.3921 18.98C17.4561 19.204 17.4881 19.428 17.4881 19.668C17.5361 20.98 16.9601 22.42 16.0001 23.3Z" fill="#CC3E2E"/>
</svg>
